<svg t="1586278150479" class="icon" viewBox="0 0 1024 1024" version="1.1" xmlns="http://www.w3.org/2000/svg" p-id="4111" width="200" height="200"><path d="M512 438.848c90.304 0 174.656-8.192 253.12-24.576 78.464-16.384 140.416-40.576 185.728-72.576l0 97.152c0 26.304-19.648 50.688-58.88 73.152-39.232 22.464-92.544 40.32-160 53.44C664.576 578.56 591.232 585.152 512 585.152c-79.232 0-152.576-6.592-220.032-19.712C224.576 552.256 171.264 534.464 131.968 512c-39.232-22.464-58.88-46.848-58.88-73.152L73.088 341.696c45.312 32 107.264 56.192 185.728 72.576C337.344 430.656 421.696 438.848 512 438.848L512 438.848 512 438.848zM512 877.696c90.304 0 174.656-8.192 253.12-24.576 78.464-16.384 140.416-40.576 185.728-72.576l0 97.152c0 26.304-19.648 50.688-58.88 73.152-39.232 22.464-92.544 40.32-160 53.44C664.576 1017.408 591.232 1024 512 1024c-79.232 0-152.576-6.592-220.032-19.712-67.456-13.12-120.768-30.976-160-53.44-39.232-22.464-58.88-46.848-58.88-73.152l0-97.152c45.312 32 107.264 56.192 185.728 72.576C337.344 869.504 421.696 877.696 512 877.696L512 877.696 512 877.696zM512 658.304c90.304 0 174.656-8.192 253.12-24.576 78.464-16.384 140.416-40.576 185.728-72.576l0 97.152c0 26.304-19.648 50.688-58.88 73.152-39.232 22.464-92.544 40.256-160 53.44C664.576 798.016 591.232 804.544 512 804.544c-79.232 0-152.576-6.592-220.032-19.712-67.456-13.12-120.768-30.976-160-53.44-39.232-22.464-58.88-46.848-58.88-73.152L73.088 561.152c45.312 32 107.264 56.192 185.728 72.576C337.344 650.112 421.696 658.304 512 658.304L512 658.304 512 658.304zM512 0c79.232 0 152.576 6.592 220.032 19.712 67.456 13.12 120.768 30.976 160 53.44 39.232 22.464 58.88 46.848 58.88 73.152l0 73.152c0 26.304-19.648 50.688-58.88 73.152-39.232 22.464-92.544 40.256-160 53.44C664.576 359.168 591.232 365.696 512 365.696c-79.232 0-152.576-6.592-220.032-19.712-67.456-13.12-120.768-30.976-160-53.44-39.232-22.464-58.88-46.848-58.88-73.152L73.088 146.304c0-26.304 19.648-50.688 58.88-73.152 39.232-22.464 92.544-40.32 160-53.44C359.424 6.592 432.768 0 512 0L512 0 512 0zM512 0" p-id="4112" fill="#bfbfbf"></path></svg>