<svg t="1590457226483" class="icon" viewBox="0 0 1024 1024" version="1.1" xmlns="http://www.w3.org/2000/svg" p-id="2949" width="260" height="260"><path d="M747.026892 19.212008a252.317699 252.317699 0 0 0-251.036898 256.1601 609.661038 609.661038 0 0 0 128.08005 311.874921c45.468418 64.040025 93.498437 117.833646 113.991244 142.809256a17.290807 17.290807 0 0 0 10.246404 6.404003 14.088806 14.088806 0 0 0 10.246404-6.404003 1563.857411 1563.857411 0 0 0 112.710444-143.449656 609.661038 609.661038 0 0 0 128.08005-311.874922 256.1601 256.1601 0 0 0-251.036898-256.1601z m0 358.62414a107.587242 107.587242 0 1 1 107.587242-107.587242 107.587242 107.587242 0 0 1-107.587242 107.587242zM640.72045 694.193871l-557.148217-30.098812 64.040025-226.701688a25.61601 25.61601 0 0 1 23.694809-19.212008l286.899312-9.606003a881.190744 881.190744 0 0 0 69.163227 142.809255A1523.512195 1523.512195 0 0 0 640.72045 694.193871z m-180.59287 249.756098H40.665416a22.414009 22.414009 0 0 1-21.773609-10.886805c-6.404003-4.482802-6.404003-12.808005-6.404002-21.773608L64.360225 711.484678l540.497811 35.862414z m518.724202-165.223265l-167.144465-15.369606q53.153221-64.040025 104.385241-132.562852c0-8.325203 8.965604-12.808005 12.808005-21.773608z m32.660413 128.08005v8.965604a28.818011 28.818011 0 0 1-28.177611 28.177611H501.753596l152.41526-185.075673 332.367729 64.040025z m0 0" fill="#bfbfbf" p-id="2950"></path></svg>
