<svg t="1568098300386" class="icon" viewBox="0 0 1261 1024" version="1.1" xmlns="http://www.w3.org/2000/svg" p-id="11952" width="1000" height="1000"><path d="M99.586991 99.586991m-99.586991 0a99.586991 99.586991 0 1 0 199.173982 0 99.586991 99.586991 0 1 0-199.173982 0Z" p-id="11953" fill="#bfbfbf"></path><path d="M307.814335 33.950111h953.836439v131.27376H307.814335z" p-id="11954" fill="#bfbfbf"></path><path d="M99.586991 511.838333m-99.586991 0a99.586991 99.586991 0 1 0 199.173982 0 99.586991 99.586991 0 1 0-199.173982 0Z" p-id="11955" fill="#bfbfbf"></path><path d="M307.814335 446.201452h953.836439v131.273761H307.814335z" p-id="11956" fill="#bfbfbf"></path><path d="M99.586991 924.089675m-99.586991 0a99.586991 99.586991 0 1 0 199.173982 0 99.586991 99.586991 0 1 0-199.173982 0Z" p-id="11957" fill="#bfbfbf"></path><path d="M307.814335 858.452794h953.836439v131.273761H307.814335z" p-id="11958" fill="#bfbfbf"></path></svg>
