<svg t="1590457331250" class="icon" viewBox="0 0 1170 1024" version="1.1" xmlns="http://www.w3.org/2000/svg" p-id="4047" width="200" height="200"><path d="M668.352897 836.050488a150.635336 150.635336 0 0 1-161.360181 9.74986C452.880993 818.988233 0 625.941007 0 625.941007v140.397982c0 12.187325 16.574762 24.862143 48.7493 39.974426 61.91161 30.224566 405.594173 172.085028 459.705895 198.897142a151.122829 151.122829 0 0 0 161.360181-9.749859c68.736512-36.561975 389.994397-172.085028 453.855979-205.722045 31.687045-17.062255 45.824342-30.224566 45.824342-41.924397v-138.935504s-430.943808 190.122268-499.680321 227.171736z" fill="#bfbfbf" p-id="4048"></path><path d="M668.352897 639.103318a150.635336 150.635336 0 0 1-161.360181 9.749859C452.880993 622.041063 0 428.506343 0 428.506343v140.397983c0 12.187325 16.574762 24.862143 48.7493 39.974426 61.91161 30.224566 405.594173 172.085028 459.705895 198.897142a151.122829 151.122829 0 0 0 161.360181-9.74986c68.736512-36.561975 389.994397-172.085028 453.855979-205.722044 31.687045-17.062255 45.824342-30.224566 45.824342-41.924398V411.931582s-430.943808 190.609761-499.680321 227.171736z" fill="#bfbfbf" p-id="4049"></path><path d="M1169.98319 227.171736c0-12.187325-15.112283-22.912171-48.7493-34.612003-59.961638-22.912171-380.73203-153.072801-442.64364-175.984971a180.372408 180.372408 0 0 0-158.922716 4.387437C448.006063 48.7493 105.78598 184.272352 45.336849 208.647002 14.62479 220.834327 0 232.534159 0 243.746498v138.448011s452.3935 194.997198 506.992716 221.32182a151.122829 151.122829 0 0 0 161.360181-9.74986C738.064396 557.204494 1169.98319 363.669775 1169.98319 363.669775v-136.498039z m-151.122829 3.899944L839.462939 302.245657l-159.897703-64.349075 177.447451-71.66147 160.385195 64.836568z m-329.545265 67.761526l-81.898823 122.848235L418.756483 341.245097l270.558613-42.411891z m-142.347955-186.222324l-26.324621-48.7493 81.898823 33.637017 77.023893-25.837129-20.962199 48.7493 78.486373 30.224566-103.348515 10.724846-22.912171 56.061694-36.561975-62.399103L459.705895 146.247899l87.748739-32.174538zM345.632534 181.834887c79.948851 0 146.247899 25.349636 146.247899 57.524174s-64.836568 57.524174-146.247899 57.524173-146.247899-25.349636-146.247899-57.524173 64.836568-57.524174 146.247899-57.524174z" fill="#bfbfbf" p-id="4050"></path></svg>
