<svg t="1568098415040" class="icon" viewBox="0 0 1024 1024" version="1.1" xmlns="http://www.w3.org/2000/svg" p-id="13898" width="270" height="270"><path d="M384 723.2c0-57.6 12.8-108.8 38.4-160C185.6 576 0 768 0 1004.8h531.2c-89.6-64-147.2-166.4-147.2-281.6zM448 499.2h12.8C512 441.6 582.4 396.8 659.2 384c25.6-38.4 38.4-83.2 38.4-134.4 0-140.8-115.2-249.6-256-249.6s-256 115.2-256 249.6C192 384 307.2 499.2 448 499.2zM979.2 774.4s-6.4 0 0 0c-19.2-6.4-25.6-12.8-32-25.6-6.4-6.4-12.8-19.2-12.8-32s6.4-25.6 12.8-32c6.4-12.8 19.2-19.2 25.6-19.2l6.4-6.4c0-6.4 6.4-6.4 0-12.8 0-12.8-6.4-19.2-6.4-32-6.4-12.8-6.4-19.2-12.8-19.2 0 0-6.4-6.4-12.8-6.4h-12.8c-12.8 6.4-19.2 6.4-32 6.4s-25.6-6.4-32-12.8c-6.4-6.4-12.8-19.2-12.8-32s0-19.2 6.4-32V512v-6.4c0-6.4-6.4-6.4-12.8-12.8s-12.8-6.4-12.8-6.4c-6.4 0-12.8-6.4-19.2-6.4h-19.2c-6.4 0-6.4 0-6.4 6.4l-6.4 6.4c-6.4 12.8-12.8 19.2-19.2 25.6s-19.2 12.8-32 12.8-19.2-6.4-32-12.8c0-6.4-6.4-19.2-12.8-25.6 0 0 0-6.4-6.4-6.4 0 0-6.4-6.4-12.8-6.4h-12.8c-6.4 0-12.8 0-19.2 6.4-6.4 0-6.4 6.4-12.8 6.4-6.4 6.4-12.8 6.4-12.8 12.8v44.8c0 6.4 0 12.8-6.4 19.2 0 6.4-6.4 12.8-6.4 12.8-6.4 6.4-19.2 12.8-25.6 12.8-12.8 0-19.2 0-32-6.4h-12.8c-12.8 6.4-12.8 6.4-19.2 12.8 0 6.4-6.4 6.4-6.4 12.8s-6.4 12.8-6.4 19.2v25.6c0 6.4 6.4 6.4 6.4 6.4 12.8 6.4 19.2 12.8 25.6 19.2s12.8 19.2 12.8 32-6.4 25.6-12.8 32c-6.4 12.8-19.2 19.2-25.6 19.2-6.4 0-6.4 6.4-12.8 12.8v19.2c0 6.4 6.4 12.8 6.4 19.2s6.4 12.8 6.4 19.2l12.8 12.8h12.8c6.4 0 12.8-6.4 25.6-6.4H576c6.4 0 12.8 6.4 19.2 12.8 6.4 6.4 12.8 19.2 12.8 25.6 0 12.8 0 19.2-6.4 25.6 0 6.4-6.4 12.8-6.4 12.8v6.4c0 6.4 6.4 6.4 12.8 12.8s12.8 6.4 19.2 6.4 12.8 6.4 19.2 6.4h32c6.4 0 6.4-6.4 6.4-6.4 6.4-12.8 12.8-19.2 19.2-25.6 12.8-6.4 19.2-12.8 32-12.8s25.6 6.4 32 12.8c6.4 6.4 12.8 19.2 19.2 25.6 0 0 0 6.4 6.4 6.4l6.4 6.4h12.8c6.4 0 12.8-6.4 19.2-6.4s12.8-6.4 12.8-6.4c6.4 0 6.4-6.4 12.8-6.4 6.4-6.4 6.4-12.8 0-19.2-6.4-12.8-6.4-19.2-6.4-32s6.4-19.2 12.8-32c6.4-6.4 6.4-6.4 12.8-6.4s12.8 0 19.2-6.4H953.6c6.4 0 6.4-6.4 12.8-12.8s6.4-12.8 6.4-19.2 6.4-12.8 6.4-19.2v-19.2c6.4 6.4 6.4 6.4 0 0z m-128-6.4c-6.4 12.8-12.8 25.6-25.6 38.4-12.8 12.8-25.6 19.2-38.4 25.6-12.8 6.4-32 6.4-44.8 6.4s-32 0-44.8-6.4-25.6-12.8-38.4-25.6c-12.8-12.8-19.2-25.6-25.6-38.4-6.4-12.8-6.4-25.6-6.4-44.8s0-32 6.4-44.8 12.8-25.6 25.6-38.4c12.8-12.8 19.2-19.2 38.4-25.6 12.8-6.4 25.6-6.4 44.8-6.4 12.8 0 32 0 44.8 6.4s25.6 12.8 38.4 25.6c12.8 12.8 19.2 25.6 25.6 38.4 6.4 12.8 6.4 25.6 6.4 44.8 0 12.8-6.4 25.6-6.4 44.8z" fill="#bfbfbf" p-id="13899"></path></svg>
