<svg t="1586278330935" class="icon" viewBox="0 0 1024 1024" version="1.1" xmlns="http://www.w3.org/2000/svg" p-id="7683" width="200" height="200"><path d="M859.940571 0.365714c58.148571 0 109.714286 37.302857 128.219429 92.598857a136.118857 136.118857 0 0 1-46.738286 151.515429 511.049143 511.049143 0 0 0-189.366857-190.171429A134.509714 134.509714 0 0 1 859.940571 0.365714zM107.044571 3.291429a134.692571 134.692571 0 0 1 138.24 53.394285 509.586286 509.586286 0 0 0-186.989714 190.646857A135.936 135.936 0 0 1 3.108571 109.275429 135.058286 135.058286 0 0 1 107.044571 3.328z m366.592 241.444571a43.593143 43.593143 0 0 0-48.749714 43.410286v260.973714c0 15.067429 12.178286 27.318857 27.172572 27.318857h196.973714a43.593143 43.593143 0 0 0 43.227428-48.969143 44.324571 44.324571 0 0 0-44.361142-38.4h-136.009143V289.243429a44.470857 44.470857 0 0 0-38.253715-44.507429z m27.867429-194.706286c186.441143 0.329143 352.914286 117.394286 417.024 293.302857a447.963429 447.963429 0 0 1-130.011429 494.226286l71.533715 71.972572c19.419429 19.492571 19.419429 51.090286 0 70.729142a49.664 49.664 0 0 1-70.290286 0.109715l-85.577143-85.942857a444.050286 444.050286 0 0 1-408.978286-0.877715l-86.454857 86.820572a49.590857 49.590857 0 0 1-70.436571 0 50.212571 50.212571 0 0 1 0-70.729143l72.923428-73.106286a448.365714 448.365714 0 0 1-128-494.921143c64.804571-175.542857 231.716571-292.059429 418.267429-291.584z" p-id="7684" fill="#bfbfbf"></path></svg>