<svg t="1586279420507" class="icon" viewBox="0 0 1024 1024" version="1.1" xmlns="http://www.w3.org/2000/svg" p-id="47992" width="200" height="200"><path d="M965.6 749.7c-1.1-1.5-2.3-2.9-3.7-4.2L697.8 481.4c11.4-34 17.6-70.5 17.6-108.4 0-2 0-4-0.1-6 0-0.8 0.1-1.6 0.1-2.4 0-0.7 0-1.5-0.1-2.2h0.1C709.8 179 559.4 32 374.6 32h-0.1-0.1c-53.3 0-103.7 12.3-148.7 34.1v0.1c-0.1 0-0.2 0.1-0.3 0.1l0.2 0.3c-3.9 1.9-7.6 4.5-10.9 7.8-16 16-16 41.9 0 57.9L371 288.6l-73.6 73.6-158.5-158.8c-16-16-41.9-16-57.9 0-3 3-5.5 6.4-7.4 10.1l-0.3-0.2C48 260.9 33.6 315.3 33.6 373c0 188.3 152.7 341 341 341 50.7 0 98.8-11.1 142.1-30.9l247 247-0.1 0.1c3.2 3.5 6.6 6.8 10.2 9.9l4.2 4.2c4 4 8.7 7.1 13.7 9.1 20.7 12.9 45.2 20.3 71.4 20.3 74.8 0 135.5-60.7 135.5-135.5 0-33.8-12.4-64.7-33-88.5z" fill="#bfbfbf" p-id="47993"></path></svg>