<svg t="1593662224386" class="icon" viewBox="0 0 1152 1024" version="1.1" xmlns="http://www.w3.org/2000/svg" p-id="10871" width="200" height="200"><path d="M940.544 427.072a317.12 317.12 0 0 0-338.56 44.608 306.304 306.304 0 0 0-96.32 323.008H223.936L33.92 907.072a22.656 22.656 0 0 1-22.528 0.256 22.016 22.016 0 0 1-11.328-19.2V176.576C0 79.04 80.192 0 179.2 0h582.208c98.944 0 179.2 79.04 179.2 176.64v250.432zM182.016 182.016a30.336 30.336 0 0 0 0 60.736h576.512a30.336 30.336 0 0 0 0-60.736H182.016z m0 182.08a30.336 30.336 0 1 0 0 60.672h212.416a30.336 30.336 0 0 0 0-60.672H182.016z" p-id="10872" fill="#bfbfbf"></path><path d="M819.2 1001.216a273.088 273.088 0 1 1 0-546.112 273.088 273.088 0 0 1 0 546.112z m30.336-289.792V606.784a30.336 30.336 0 0 0-60.672 0v121.408c0 11.136 6.016 20.864 14.912 26.112a30.464 30.464 0 0 0 5.248 3.84l105.152 60.672a30.336 30.336 0 0 0 30.336-52.544l-94.976-54.848z" p-id="10873" fill="#bfbfbf"></path></svg>
