<svg t="1593662549137" class="icon" viewBox="0 0 1024 1024" version="1.1" xmlns="http://www.w3.org/2000/svg" p-id="20624" width="200" height="200"><path d="M822.69 42.629H191.601c-53.4 0-97.09 43.69-97.09 97.09v728.178c0 53.4 43.69 97.09 97.09 97.09h631.087c53.4 0 97.09-43.69 97.09-97.09V139.719c0-53.4-43.69-97.09-97.09-97.09zM261.991 278.073h252.435c14.564 0 24.273 9.709 24.273 24.272s-9.71 24.273-24.273 24.273H261.992c-14.563 0-24.272-9.709-24.272-24.273s9.709-24.272 24.272-24.272zM745.017 705.27H261.992c-14.563 0-24.272-9.71-24.272-24.273s9.709-24.273 24.272-24.273h483.025c14.563 0 24.272 9.71 24.272 24.273s-9.709 24.273-24.272 24.273z m7.282-189.327H261.992c-14.563 0-24.272-9.709-24.272-24.272s9.709-24.273 24.272-24.273h492.734c14.563 0 24.273 9.71 24.273 24.273s-12.137 24.272-26.7 24.272z" p-id="20625" fill="#bfbfbf"></path></svg>
