<svg t="1593662070218" class="icon" viewBox="0 0 1024 1024" version="1.1" xmlns="http://www.w3.org/2000/svg" p-id="7120" width="200" height="200"><path d="M512 16a160 160 0 0 0-155.52 123.52 398.72 398.72 0 0 0-64 28.16 455.68 455.68 0 0 0-71.68 48.64 496.64 496.64 0 0 0-60.16 64 448 448 0 0 0-47.36 71.68 458.88 458.88 0 0 0-33.28 80A64 64 0 0 0 123.52 512a58.88 58.88 0 0 0 18.56 0 64 64 0 0 0 60.8-45.44 344.32 344.32 0 0 1 23.68-56.96 394.24 394.24 0 0 1 33.92-51.2 348.16 348.16 0 0 1 94.08-78.72c8.96-4.48 17.92-7.68 26.88-11.52A160 160 0 1 0 512 16zM542.72 878.08a320 320 0 0 1-64 0 338.56 338.56 0 0 1-64-12.8 261.12 261.12 0 0 1-56.96-23.68 168.96 168.96 0 0 1-22.4-14.72A159.36 159.36 0 1 0 192 920.32a162.56 162.56 0 0 0 42.88-7.04 395.52 395.52 0 0 0 64 42.24 467.2 467.2 0 0 0 80 33.28 492.16 492.16 0 0 0 86.4 17.28h43.52a374.4 374.4 0 0 0 46.72 0 64 64 0 0 0-12.8-128zM949.12 644.48q3.84-20.48 5.76-40.32a431.36 431.36 0 0 0 0-90.88 451.2 451.2 0 0 0-18.56-88.32 414.08 414.08 0 0 0-34.56-81.28 410.88 410.88 0 0 0-48.64-71.04 64 64 0 1 0-98.56 81.92 346.24 346.24 0 0 1 35.2 51.2 307.2 307.2 0 0 1 24.96 57.6 300.8 300.8 0 0 1 12.8 64 278.4 278.4 0 0 1 0 64 51.2 51.2 0 0 1 0 9.6 156.8 156.8 0 1 0 172.16 155.52 154.24 154.24 0 0 0-50.56-112z" fill="#bfbfbf" p-id="7121"></path></svg>
