<svg t="1593662488647" class="icon" viewBox="0 0 1024 1024" version="1.1" xmlns="http://www.w3.org/2000/svg" p-id="19161" width="200" height="200"><path d="M776.533333 384c10.24-10.24 15.36-23.893333 15.36-37.546667 0-13.653333-5.12-27.306667-15.36-37.546666L738.986667 273.066667c-20.48-20.48-54.613333-20.48-75.093334 0l-35.84 35.84 110.933334 110.933333 37.546666-35.84z m-78.506666 73.386667l-109.226667-107.52-262.826667 262.826666 109.226667 107.52 262.826667-262.826666zM385.706667 749.226667c11.946667 0 23.893333-3.413333 34.133333-10.24L307.2 628.053333c-6.826667 10.24-10.24 20.48-10.24 32.426667L256 790.186667l129.706667-40.96zM1024 512c0 283.306667-228.693333 512-512 512S0 795.306667 0 512 228.693333 0 512 0s512 228.693333 512 512z" p-id="19162" fill="#bfbfbf"></path></svg>
