<svg t="1593662451746" class="icon" viewBox="0 0 1024 1024" version="1.1" xmlns="http://www.w3.org/2000/svg" p-id="18339" width="200" height="200"><path d="M910.4 521.6c-38.4-20.8-80-30.4-126.4-30.4-155.2 0-281.6 128-281.6 286.4 0 105.6 56 196.8 137.6 246.4H201.6C91.2 1024 0 931.2 0 819.2V204.8C0 92.8 91.2 0 201.6 0h508.8C820.8 0 912 92.8 912 204.8v316.8zM203.2 276.8h504c20.8 0 38.4-17.6 38.4-38.4s-17.6-38.4-38.4-38.4H203.2c-20.8 0-38.4 17.6-38.4 38.4s16 38.4 38.4 38.4z m0 196.8h281.6c20.8 0 38.4-17.6 38.4-38.4 0-20.8-17.6-38.4-38.4-38.4H203.2c-20.8 0-38.4 17.6-38.4 38.4 1.6 20.8 16 38.4 38.4 38.4z m0 176h126.4c20.8 0 38.4-17.6 38.4-38.4s-17.6-38.4-38.4-38.4h-126.4c-20.8 0-38.4 17.6-38.4 38.4s16 38.4 38.4 38.4z m0 198.4h126.4c20.8 0 38.4-17.6 38.4-38.4 0-20.8-17.6-38.4-38.4-38.4h-126.4c-20.8 0-38.4 17.6-38.4 38.4-1.6 19.2 16 38.4 38.4 38.4z m337.6-70.4c0-136 108.8-246.4 241.6-246.4S1024 641.6 1024 777.6 915.2 1024 782.4 1024s-241.6-110.4-241.6-246.4z m156.8-25.6c-9.6-9.6-25.6-9.6-35.2 0s-9.6 25.6 0 35.2l75.2 76.8c9.6 9.6 25.6 9.6 35.2 0l123.2-124.8c9.6-9.6 9.6-25.6 0-35.2-9.6-9.6-25.6-9.6-35.2 0l-105.6 105.6-57.6-57.6z" fill="#bfbfbf" p-id="18340"></path></svg>
