<svg t="1593661923521" class="icon" viewBox="0 0 1024 1024" version="1.1" xmlns="http://www.w3.org/2000/svg" p-id="4435" width="200" height="200"><path d="M473.088 892.416c5.12 5.12 12.288 8.192 20.48 8.192 15.872 0 28.672-13.312 29.184-29.184v-19.456l1.024-290.304c0-12.288 7.168-23.552 17.92-29.696L819.2 381.44c14.336-6.656 20.992-23.552 14.336-37.888-6.656-14.336-23.552-20.992-37.888-14.336-1.536 0.512-2.56 1.536-3.584 2.048l-278.016 151.04c-7.168 4.096-13.824 8.704-19.968 14.848-5.632-5.632-12.288-10.752-19.968-14.848L204.8 330.752c-14.336-6.656-31.744-0.512-38.4 13.824-6.144 12.8-1.536 28.672 10.24 36.352L445.952 532.48c10.752 6.144 17.92 17.408 17.92 29.696l1.024 309.76c0 8.192 3.072 15.36 8.192 20.48z m20.48 124.416c-15.872 0-31.744-4.096-45.568-12.288l-345.088-199.168c-28.16-16.384-45.568-46.592-45.568-79.36V328.192c0-32.768 17.408-62.976 45.568-79.36L448 49.664c27.648-15.872 63.488-15.872 91.648 0l345.088 199.168c28.16 16.384 45.568 46.592 45.568 79.36v398.336c0 32.768-17.408 62.976-45.568 79.36l-345.088 199.168c-14.336 7.168-30.208 11.776-46.08 11.776z" p-id="4436" fill="#bfbfbf"></path></svg>
