<svg t="1591078217331" class="icon" viewBox="0 0 1024 1024" version="1.1" xmlns="http://www.w3.org/2000/svg" p-id="6645" width="200" height="200"><path d="M568.888889 853.333333H227.555556a56.888889 56.888889 0 0 1-56.888889-56.888889v-199.111111a28.444444 28.444444 0 0 1 28.444444-28.444444h56.888889a28.444444 28.444444 0 0 1 28.444444 28.444444V739.555556h284.444445v-113.777778a56.888889 56.888889 0 0 1 56.888889-56.888889h341.333333a56.888889 56.888889 0 0 1 56.888889 56.888889v341.333333a56.888889 56.888889 0 0 1-56.888889 56.888889h-341.333333a56.888889 56.888889 0 0 1-56.888889-56.888889v-113.777778zM455.111111 284.444444v113.777778a56.888889 56.888889 0 0 1-56.888889 56.888889H56.888889a56.888889 56.888889 0 0 1-56.888889-56.888889V56.888889a56.888889 56.888889 0 0 1 56.888889-56.888889h341.333333a56.888889 56.888889 0 0 1 56.888889 56.888889v113.777778h341.333333a56.888889 56.888889 0 0 1 56.888889 56.888889v199.111111a28.444444 28.444444 0 0 1-28.444444 28.444444h-56.888889a28.444444 28.444444 0 0 1-28.444444-28.444444V284.444444H455.111111zM113.777778 341.333333h227.555555V113.777778H113.777778v227.555555z m568.888889 568.888889h227.555555v-227.555555h-227.555555v227.555555z" fill="#bfbfbf" p-id="6646"></path></svg>
